<?xml version="1.0" encoding="UTF-8" standalone="no"?>
<svg xmlns:dc="http://purl.org/dc/elements/1.1/"
    xmlns:cc="http://creativecommons.org/ns#"
    xmlns:rdf="http://www.w3.org/1999/02/22-rdf-syntax-ns#"
    xmlns:svg="http://www.w3.org/2000/svg"
    xmlns="http://www.w3.org/2000/svg"
    xmlns:sodipodi="http://sodipodi.sourceforge.net/DTD/sodipodi-0.dtd"
    xmlns:inkscape="http://www.inkscape.org/namespaces/inkscape" width="341.210559392194" height="62.68780551272109" viewBox="0 0 341.210559392194 62.68780551272109" class="css-1j8o68f" version="1.1" id="svg24" sodipodi:docname="winecharts.svg" inkscape:version="1.0.1 (c497b03c, 2020-09-10)">
    <metadata id="metadata28">
        <rdf:RDF>
            <cc:Work rdf:about="">
                <dc:format>image/svg+xml</dc:format>
                <dc:type rdf:resource="http://purl.org/dc/dcmitype/StillImage" />
                <dc:title></dc:title>
            </cc:Work>
        </rdf:RDF>
    </metadata>
    <sodipodi:namedview pagecolor="#ffffff" bordercolor="#666666" borderopacity="1" objecttolerance="10" gridtolerance="10" guidetolerance="10" inkscape:pageopacity="0" inkscape:pageshadow="2" inkscape:window-width="709" inkscape:window-height="480" id="namedview26" showgrid="false" inkscape:zoom="2.4325155" inkscape:cx="170.60529" inkscape:cy="31.343903" inkscape:window-x="0" inkscape:window-y="23" inkscape:window-maximized="0" inkscape:current-layer="svg24" />
    <defs id="SvgjsDefs2769" />
    <g id="SvgjsG2770" featurekey="symbolFeature-0" transform="matrix(0.626871789852822,0,0,0.626871789852822,-17.58955458423146,0)" fill="#ba1628">
        <g id="g15">
            <path d="M60.963,43.943c5.076-4.007,7.957-9.454,8.857-16.034C71.219,17.713,69.233,9.407,65.99,0h-1.979   c2.692,7.713,4.57,14.585,4.385,22.421l-1.909-1.36c-14.034-10.751-20.477,9.57-33.095,0.762c0,0-1.763,15.382,6.656,21.45   c-5.31-3.185-8.803-9.122-9.689-15.611C28.961,17.52,31.043,9.379,34.311,0H32.35c-3.249,9.407-5.231,17.714-3.84,27.909   c0.901,6.58,3.782,12.027,8.864,16.034c5.45,3.956,9.978,7.944,9.994,15.243c0,7.539,0,21.047,0,28.592   c-0.052,8.018-7.189,10.688-12.326,10.621c-1.117-0.016-1.121,1.602,0,1.602h14.125h14.129c1.12,0,1.104-1.617-0.01-1.602   c-5.127,0.07-12.277-2.6-12.328-10.617c0-7.545,0-21.053,0-28.596C50.985,51.887,55.513,47.899,60.963,43.943z" id="path11" />
            <path d="M35.699,45.697c0.021,0,0.042,0,0.064,0C35.742,45.697,35.721,45.697,35.699,45.697z" id="path13" />
        </g>
    </g>
    <g id="SvgjsG2771" featurekey="nameLeftFeature-0" transform="matrix(2.487611329869885,0,0,2.487611329869885,44.50743225312966,-0.925667979219309)" fill="#ba1628">
        <path d="M20.54 6 l-4.6 14 l-2.1 0 l-3.28 -8.86 l-3.26 8.86 l-2.1 0 l-4.6 -14 l3.08 0 l2.68 8.3 l3.06 -8.3 l2.3 0 l3.06 8.3 l2.68 -8.3 l3.08 0 z M25.26 6 l0 14 l-2.92 0 l0 -14 l2.92 0 z M36.82 6 l2.92 0 l0 14 l-2.22 0 l-6.94 -8.68 l0 8.68 l-2.92 0 l0 -14 l2.26 0 l6.9 8.7 l0 -8.7 z M45.059999999999995 17.32 l5.92 0 l0 2.68 l-6.32 0 l-2.52 0 l0 -14 l2.92 0 l5.74 0 l0 2.68 l-5.74 0 l0 2.96 l4.34 0 l0 2.64 l-4.34 0 l0 3.04 z" id="path18" />
    </g>
    <g id="SvgjsG2772" featurekey="nameRightFeature-0" transform="matrix(2.395223963224577,0,0,2.395223963224577,175.84429820467153,0.2035094236031778)" fill="#ba1628">
        <path d="M12.58 18.5 c-1.3 1.08 -2.9 1.7 -4.62 1.7 c-3.44 0 -7.06 -2.98 -7.06 -7.2 s3.62 -7.2 7.06 -7.2 c1.7 0 3.28 0.6 4.58 1.66 l-0.4 0.46 c-1.18 -1 -2.64 -1.52 -4.12 -1.52 c-3.16 0 -6.54 2.68 -6.54 6.6 s3.38 6.6 6.54 6.6 c1.48 0 2.96 -0.52 4.12 -1.5 z M23.44 6 l0.58 0 l0 14 l-0.58 0 l0 -6.52 l-8.38 0 l0 6.52 l-0.58 0 l0 -14 l0.58 0 l0 6.9 l8.38 0 l0 -6.9 z M37.839999999999996 20 l-1.78 -3.98 l-8.04 0 l-1.78 3.98 l-0.62 0 l6.26 -14 l0.3 0 l6.28 14 l-0.62 0 z M28.259999999999998 15.46 l7.56 0 l-3.78 -8.46 z M49.72 20 l-0.72 0 l-4.08 -5.38 c-0.2 0.02 -0.4 0.02 -0.6 0.02 l-3.68 0 l0 5.36 l-0.58 0 l0 -14 l4.26 0 c3.14 0 4.8 1.94 4.8 4.3 c0 2.08 -1.22 3.8 -3.56 4.24 z M40.64 14.04 l3.76 0 c2.52 0 4.14 -1.46 4.14 -3.74 c0 -2.32 -1.62 -3.72 -4.14 -3.72 l-3.76 0 l0 7.46 z M59.16 6 l0 0.58 l-4.22 0 l0 13.42 l-0.58 0 l0 -13.42 l-4.24 0 l0 -0.58 l9.04 0 z M64.6 5.76 c1.96 0 3.58 1.34 4.08 2.98 l-0.48 0.18 c-0.56 -1.48 -1.82 -2.6 -3.6 -2.6 c-2 0 -3.36 1.16 -3.36 2.74 c0 1.42 0.96 2.4 2.84 3.14 l1.06 0.4 c2.02 0.82 3.9 1.64 3.9 4.12 c0 2.04 -1.98 3.58 -4.34 3.58 c-2.24 0 -4.2 -1.38 -4.64 -3.42 l0.56 -0.18 c0.48 1.88 2.1 3.04 4.08 3.04 s3.76 -1.26 3.76 -3.04 c0 -2.1 -1.58 -2.84 -3.34 -3.52 l-1.2 -0.48 c-2.18 -0.86 -3.26 -2.02 -3.26 -3.62 c0 -1.86 1.54 -3.32 3.94 -3.32 z" id="path21" />
    </g>
</svg>
